<svg id="visual" viewBox="0 0 900 600" width="900" height="600" xmlns="http://www.w3.org/2000/svg" xmlns:xlink="http://www.w3.org/1999/xlink" version="1.1"><rect x="0" y="0" width="900" height="600" fill="#001220"></rect><g fill="#feb9d3"><circle r="49" cx="752" cy="268"></circle><circle r="22" cx="789" cy="590"></circle><circle r="42" cx="45" cy="587"></circle><circle r="43" cx="868" cy="147"></circle><circle r="29" cx="457" cy="396"></circle><circle r="30" cx="156" cy="299"></circle><circle r="44" cx="333" cy="359"></circle><circle r="26" cx="601" cy="148"></circle><circle r="33" cx="541" cy="36"></circle><circle r="26" cx="378" cy="163"></circle><circle r="25" cx="773" cy="383"></circle><circle r="27" cx="166" cy="453"></circle><circle r="34" cx="197" cy="37"></circle><circle r="24" cx="292" cy="209"></circle><circle r="22" cx="454" cy="246"></circle><circle r="39" cx="82" cy="180"></circle><circle r="47" cx="649" cy="373"></circle><circle r="24" cx="767" cy="42"></circle><circle r="28" cx="482" cy="560"></circle><circle r="42" cx="144" cy="556"></circle><circle r="41" cx="313" cy="14"></circle><circle r="33" cx="566" cy="427"></circle><circle r="27" cx="556" cy="271"></circle><circle r="36" cx="53" cy="289"></circle><circle r="22" cx="234" cy="594"></circle><circle r="47" cx="861" cy="519"></circle><circle r="30" cx="734" cy="501"></circle><circle r="37" cx="269" cy="500"></circle><circle r="26" cx="629" cy="536"></circle><circle r="35" cx="854" cy="318"></circle><circle r="30" cx="17" cy="424"></circle><circle r="37" cx="350" cy="593"></circle><circle r="37" cx="274" cy="113"></circle><circle r="36" cx="448" cy="73"></circle><circle r="33" cx="651" cy="55"></circle><circle r="31" cx="698" cy="171"></circle><circle r="38" cx="239" cy="386"></circle><circle r="25" cx="880" cy="17"></circle><circle r="37" cx="369" cy="496"></circle><circle r="31" cx="30" cy="16"></circle><circle r="37" cx="189" cy="205"></circle><circle r="21" cx="5" cy="114"></circle><circle r="46" cx="504" cy="155"></circle></g></svg>