<svg id="visual" viewBox="0 0 900 600" width="900" height="600" xmlns="http://www.w3.org/2000/svg" xmlns:xlink="http://www.w3.org/1999/xlink" version="1.1"><rect x="0" y="0" width="900" height="600" fill="#001220"></rect><path d="M309 600L326 585.7C343 571.3 377 542.7 385.2 514.2C393.3 485.7 375.7 457.3 383.3 428.8C391 400.3 424 371.7 445.7 343C467.3 314.3 477.7 285.7 463 257C448.3 228.3 408.7 199.7 381 171.2C353.3 142.7 337.7 114.3 335.8 85.8C334 57.3 346 28.7 352 14.3L358 0L900 0L900 14.3C900 28.7 900 57.3 900 85.8C900 114.3 900 142.7 900 171.2C900 199.7 900 228.3 900 257C900 285.7 900 314.3 900 343C900 371.7 900 400.3 900 428.8C900 457.3 900 485.7 900 514.2C900 542.7 900 571.3 900 585.7L900 600Z" fill="#ff2d7e"></path><path d="M467 600L463.7 585.7C460.3 571.3 453.7 542.7 442.7 514.2C431.7 485.7 416.3 457.3 427 428.8C437.7 400.3 474.3 371.7 505.7 343C537 314.3 563 285.7 548.3 257C533.7 228.3 478.3 199.7 451.5 171.2C424.7 142.7 426.3 114.3 441 85.8C455.7 57.3 483.3 28.7 497.2 14.3L511 0L900 0L900 14.3C900 28.7 900 57.3 900 85.8C900 114.3 900 142.7 900 171.2C900 199.7 900 228.3 900 257C900 285.7 900 314.3 900 343C900 371.7 900 400.3 900 428.8C900 457.3 900 485.7 900 514.2C900 542.7 900 571.3 900 585.7L900 600Z" fill="#ff5591"></path><path d="M559 600L558 585.7C557 571.3 555 542.7 567 514.2C579 485.7 605 457.3 617.8 428.8C630.7 400.3 630.3 371.7 623.2 343C616 314.3 602 285.7 602.5 257C603 228.3 618 199.7 604.5 171.2C591 142.7 549 114.3 537.2 85.8C525.3 57.3 543.7 28.7 552.8 14.3L562 0L900 0L900 14.3C900 28.7 900 57.3 900 85.8C900 114.3 900 142.7 900 171.2C900 199.7 900 228.3 900 257C900 285.7 900 314.3 900 343C900 371.7 900 400.3 900 428.8C900 457.3 900 485.7 900 514.2C900 542.7 900 571.3 900 585.7L900 600Z" fill="#ff72a3"></path><path d="M636 600L646.5 585.7C657 571.3 678 542.7 670.2 514.2C662.3 485.7 625.7 457.3 620 428.8C614.3 400.3 639.7 371.7 656.3 343C673 314.3 681 285.7 682 257C683 228.3 677 199.7 666.5 171.2C656 142.7 641 114.3 633.5 85.8C626 57.3 626 28.7 626 14.3L626 0L900 0L900 14.3C900 28.7 900 57.3 900 85.8C900 114.3 900 142.7 900 171.2C900 199.7 900 228.3 900 257C900 285.7 900 314.3 900 343C900 371.7 900 400.3 900 428.8C900 457.3 900 485.7 900 514.2C900 542.7 900 571.3 900 585.7L900 600Z" fill="#ff8bb4"></path><path d="M678 600L684.5 585.7C691 571.3 704 542.7 703 514.2C702 485.7 687 457.3 694.5 428.8C702 400.3 732 371.7 739.3 343C746.7 314.3 731.3 285.7 716.2 257C701 228.3 686 199.7 681.8 171.2C677.7 142.7 684.3 114.3 701.5 85.8C718.7 57.3 746.3 28.7 760.2 14.3L774 0L900 0L900 14.3C900 28.7 900 57.3 900 85.8C900 114.3 900 142.7 900 171.2C900 199.7 900 228.3 900 257C900 285.7 900 314.3 900 343C900 371.7 900 400.3 900 428.8C900 457.3 900 485.7 900 514.2C900 542.7 900 571.3 900 585.7L900 600Z" fill="#ffa3c4"></path><path d="M802 600L804.5 585.7C807 571.3 812 542.7 805.7 514.2C799.3 485.7 781.7 457.3 775.2 428.8C768.7 400.3 773.3 371.7 771.3 343C769.3 314.3 760.7 285.7 772 257C783.3 228.3 814.7 199.7 823.8 171.2C833 142.7 820 114.3 805.8 85.8C791.7 57.3 776.3 28.7 768.7 14.3L761 0L900 0L900 14.3C900 28.7 900 57.3 900 85.8C900 114.3 900 142.7 900 171.2C900 199.7 900 228.3 900 257C900 285.7 900 314.3 900 343C900 371.7 900 400.3 900 428.8C900 457.3 900 485.7 900 514.2C900 542.7 900 571.3 900 585.7L900 600Z" fill="#feb9d3"></path></svg>